<svg xmlns="http://www.w3.org/2000/svg" xmlns:xlink="http://www.w3.org/1999/xlink" version="1.1" x="0px" y="0px" viewBox="0 0 62 80" enable-background="new 0 0 91 91" xml:space="preserve"><g><path d="M21.102,66.97l-3.801,3.802l1.555,1.555l3.801-3.801l9.521,17.209l7.035-7.035l-4.334-14.273l16.586-16.584L71.229,83.57   l7.916-7.914l-4.584-15.101l3.104-3.092c1.93-1.932,1.93-5.076-0.002-7.009c-1.736-1.737-4.447-1.896-6.336-0.552l-5.107-16.816   l14.01-14.009c1.285-1.284,2.41-3.407,2.936-5.539c0.645-2.615,0.285-4.77-1.012-6.065c-0.863-0.866-2.137-1.324-3.678-1.324   c-2.668,0-6.076,1.396-7.928,3.247L56.539,23.404l-16.816-5.105c0.58-0.825,0.898-1.802,0.898-2.832   c0-1.323-0.514-2.567-1.451-3.504c-1.934-1.931-5.078-1.933-7.014,0.004l-3.063,3.104l-15.125-4.592l-7.914,7.915l35.729,19.765   L25.197,54.745l-14.27-4.332l-7.037,7.034L21.102,66.97z M72.209,52.012c1.074-1.073,2.824-1.073,3.898-0.001   c1.074,1.075,1.074,2.823,0.002,3.896l-2.273,2.265l-1.82-5.994L72.209,52.012z M76.656,75.033l-4.916,4.916L53.082,46.224   l11.375-11.373L76.656,75.033z M33.717,13.518c1.074-1.074,2.824-1.072,3.898,0.001c0.52,0.521,0.807,1.213,0.807,1.948   c0,0.736-0.287,1.428-0.783,1.926L37.42,17.6l-5.949-1.806L33.717,13.518z M9.676,17.885l4.916-4.917l40.182,12.201L43.402,36.541   L9.676,17.885z M11.551,52.901l14.27,4.332l46.281-46.281C73.354,9.7,76.146,8.35,78.475,8.35c0.658,0,1.563,0.118,2.123,0.68   c0.719,0.72,0.877,2.172,0.43,3.983c-0.428,1.737-1.352,3.508-2.354,4.51l-46.283,46.28l4.334,14.273l-4.037,4.037l-8.414-15.206   l6.984-6.985l-1.555-1.555l-7.014,7.015L7.512,56.938L11.551,52.901z"/><path d="M77.721,13.005c0.289,0,0.568-0.109,0.77-0.319c0.209-0.2,0.33-0.48,0.33-0.78c0-0.29-0.121-0.57-0.32-0.78   c-0.41-0.41-1.15-0.41-1.561,0c-0.199,0.21-0.32,0.49-0.32,0.78c0,0.3,0.111,0.569,0.32,0.78   C77.15,12.896,77.42,13.005,77.721,13.005z"/><rect x="9.309" y="35.537" transform="matrix(-0.7072 0.707 -0.707 -0.7072 56.1235 50.031)" width="16.784" height="2.201"/><rect x="13.555" y="27.45" transform="matrix(-0.7076 -0.7067 0.7067 -0.7076 2.4211 64.9746)" width="2.2" height="9.072"/><rect x="51.889" y="63.531" transform="matrix(-0.7071 -0.7071 0.7071 -0.7071 39.5999 160.2475)" width="2.199" height="16.783"/><rect x="56.538" y="70.434" transform="matrix(0.7071 0.7071 -0.7071 0.7071 69.8943 -18.7983)" width="2.201" height="9.074"/><rect x="26.077" y="22.718" transform="matrix(0.9497 0.313 -0.313 0.9497 9.3691 -10.7194)" width="23.981" height="2.2"/><rect x="53.609" y="51.432" transform="matrix(-0.2988 -0.9543 0.9543 -0.2988 35.0647 130.8289)" width="23.979" height="2.2"/></g><text x="0" y="106" fill="#000000" font-size="5px" font-weight="bold" font-family="'Helvetica Neue', Helvetica, Arial-Unicode, Arial, Sans-serif"></text><text x="0" y="111" fill="#000000" font-size="5px" font-weight="bold" font-family="'Helvetica Neue', Helvetica, Arial-Unicode, Arial, Sans-serif"></text></svg>