<svg xmlns="http://www.w3.org/2000/svg" xmlns:xlink="http://www.w3.org/1999/xlink" version="1.1" x="0px" y="0px" viewBox="0 0 62 80" style="enable-background:new 0 0 66 66;" xml:space="preserve"><g><g><path d="M65,40.3h-8.1c-0.6,0-1,0.4-1,1v2.6H18.8v-5.6c0-0.6-0.4-1-1-1h-4.2V18.5c1-0.7,1.6-1.7,1.8-2.9l14.5-9l6,11.4h-2.6    c-0.6,0-1,0.4-1,1v8.5c0,0.6,0.4,1,1,1h8.5c0.6,0,1-0.4,1-1V19c0-0.6-0.4-1-1-1h-3.6L31.5,5.3c0.8-1,1-2.4,0.3-3.5    c-0.9-1.4-2.7-1.9-4.2-1l-15.3,9.6c0,0,0,0-0.1,0.1c-0.4-0.1-0.8-0.2-1.3-0.2H9.4c-2.5,0-4.5,2-4.5,4.6c0,1.5,0.8,2.9,1.9,3.7    v18.8H1c-0.6,0-1,0.4-1,1c0,11.6,9.4,21,20.9,21H65c0.6,0,1-0.4,1-1v-17C66,40.8,65.6,40.3,65,40.3z M40.7,26.5h-6.5V20    c0.7,0-1.4,0,6.5,0V26.5z M28.7,2.5c0.5-0.3,1.1-0.2,1.4,0.3c0.3,0.5,0.1,1.1-0.3,1.4l-14.5,9.1c-0.2-0.7-0.6-1.3-1.1-1.7    L28.7,2.5z M9.4,12.3H11c1.4,0,2.5,1.1,2.5,2.6c0,1.4-1.1,2.5-2.5,2.5H9.4c-1.4,0-2.5-1.1-2.5-2.6C6.9,13.4,8,12.3,9.4,12.3z     M9.4,19.4H11c0.2,0,0.4,0,0.6-0.1v18H8.8v-18C9,19.3,9.2,19.4,9.4,19.4z M64,57.3H20.9c-10.1,0-18.4-8-18.9-18h14.7v5.6    c0,0.6,0.4,1,1,1h39.1c0.6,0,1-0.4,1-1v-2.6H64V57.3z"/></g><g><path d="M63.5,61.4c-1.1-0.9-2.7-1.1-4-0.4L55,63.4c-0.5,0.3-1.1,0.3-1.6-0.1l-3.7-2.3c-1.1-0.7-2.5-0.7-3.6-0.1l-4.7,2.5    c-0.5,0.3-1.1,0.3-1.6,0L35.8,61c-1.1-0.6-2.5-0.7-3.6-0.1l-4.7,2.5c-0.5,0.3-1.1,0.3-1.6,0L21.9,61c-1.1-0.6-2.5-0.7-3.6,0    L14,63.3c-0.5,0.3-1.2,0.3-1.7-0.1l-3.1-2.1c-1.1-0.7-2.5-0.8-3.7-0.2l-5,2.5c-0.5,0.2-0.7,0.9-0.4,1.3c0.2,0.5,0.8,0.7,1.3,0.4    l5-2.5c0.5-0.3,1.2-0.2,1.7,0.1l3.1,2.1c1.1,0.8,2.6,0.8,3.8,0.2l4.2-2.4c0.5-0.3,1.1-0.3,1.6,0l4.1,2.4c0.6,0.3,1.2,0.5,1.8,0.5    c0.6,0,1.2-0.1,1.7-0.4l4.7-2.5c0.5-0.3,1.1-0.3,1.6,0l3.9,2.3c1.1,0.6,2.5,0.7,3.6,0.1l4.7-2.5c0.5-0.3,1.1-0.3,1.6,0.1l3.7,2.3    c1.1,0.7,2.5,0.7,3.6,0.1l4.5-2.4c0.6-0.3,1.3-0.2,1.8,0.2l2.2,1.7c0.4,0.3,1.1,0.3,1.4-0.2c0.3-0.4,0.3-1.1-0.2-1.4L63.5,61.4z"/></g><g><path d="M29.9,31h-8.5c-0.6,0-1,0.4-1,1v8.5c0,0.6,0.4,1,1,1h8.5c0.6,0,1-0.4,1-1V32C30.9,31.5,30.4,31,29.9,31z M28.9,39.5h-6.5    V33h6.5V39.5z"/></g><g><path d="M41.7,31h-8.5c-0.6,0-1,0.4-1,1v8.5c0,0.6,0.4,1,1,1h8.5c0.6,0,1-0.4,1-1V32C42.7,31.5,42.3,31,41.7,31z M40.7,39.5h-6.5    V33h6.5V39.5z"/></g><g><path d="M45.2,41.5h8.5c0.6,0,1-0.4,1-1V32c0-0.6-0.4-1-1-1h-8.5c-0.6,0-1,0.4-1,1v8.5C44.2,41.1,44.6,41.5,45.2,41.5z M46.2,33    h6.5v6.5h-6.5V33z"/></g><g><path d="M30.9,19c0-0.6-0.4-1-1-1h-8.5c-0.6,0-1,0.4-1,1v8.5c0,0.6,0.4,1,1,1h8.5c0.6,0,1-0.4,1-1V19z M28.9,26.5h-6.5V20h6.5    V26.5z"/></g><g><path d="M45.2,28.5h8.5c0.6,0,1-0.4,1-1V19c0-0.6-0.4-1-1-1h-8.5c-0.6,0-1,0.4-1,1v8.5C44.2,28,44.6,28.5,45.2,28.5z M46.2,20h6.5    v6.5h-6.5V20z"/></g><g><path d="M20.6,51.1h-3.8c-0.6,0-1,0.4-1,1c0,0.6,0.4,1,1,1h3.8c0.6,0,1-0.4,1-1C21.6,51.6,21.1,51.1,20.6,51.1z"/></g><g><path d="M28.5,51.1h-3.8c-0.6,0-1,0.4-1,1c0,0.6,0.4,1,1,1h3.8c0.6,0,1-0.4,1-1C29.5,51.6,29.1,51.1,28.5,51.1z"/></g><g><path d="M36.5,51.1h-3.8c-0.6,0-1,0.4-1,1c0,0.6,0.4,1,1,1h3.8c0.6,0,1-0.4,1-1C37.5,51.6,37.1,51.1,36.5,51.1z"/></g><g><path d="M44.5,51.1h-3.8c-0.6,0-1,0.4-1,1c0,0.6,0.4,1,1,1h3.8c0.6,0,1-0.4,1-1C45.5,51.6,45,51.1,44.5,51.1z"/></g><g><path d="M52.5,51.1h-3.8c-0.6,0-1,0.4-1,1c0,0.6,0.4,1,1,1h3.8c0.6,0,1-0.4,1-1C53.5,51.6,53,51.1,52.5,51.1z"/></g><g><path d="M55.6,52.1c0,0.6,0.4,1,1,1h3.8c0.6,0,1-0.4,1-1c0-0.6-0.4-1-1-1h-3.8C56.1,51.1,55.6,51.6,55.6,52.1z"/></g></g><text x="0" y="81" fill="#000000" font-size="5px" font-weight="bold" font-family="'Helvetica Neue', Helvetica, Arial-Unicode, Arial, Sans-serif"></text><text x="0" y="86" fill="#000000" font-size="5px" font-weight="bold" font-family="'Helvetica Neue', Helvetica, Arial-Unicode, Arial, Sans-serif"></text></svg>