<svg xmlns="http://www.w3.org/2000/svg" xmlns:xlink="http://www.w3.org/1999/xlink" version="1.1" x="0px" y="0px" viewBox="0 0 62 80" enable-background="new 0 0 91 91" xml:space="preserve"><g><path d="M15.678,80.872h29.418h2.99h7.961v-2.199h-8.334l-7.545-44.468V21.111h-1.1l-0.031-0.041h8.789v0.041h2.201V21.07h20.93   v13.736l-13.051,6.705h-0.502v18.787h29.307V41.512h-0.502l-13.051-6.705V18.871H50.027v-4.327L38.471,8.179H20.607v10.692H6.414   v5.366h2.199V21.07h11.994v0.041v13.094l-7.547,44.468H5.646v2.199h7.041H15.678z M84.51,58.1H59.604V43.711H84.51V58.1z    M81.395,41.512H62.721l9.338-4.797L81.395,41.512z M17.564,78.673l12.822-12.524l12.822,12.524H17.564z M30.387,26.323   l-6.916-5.253h13.832L30.387,26.323z M37.967,23.328v8.753l-5.762-4.376L37.967,23.328z M35.801,33.198H24.973l5.414-4.112   L35.801,33.198z M36.357,35.397l-5.971,5.565l-5.973-5.565H36.357z M39.537,52.498H21.236l9.15-8.527L39.537,52.498z    M38.959,54.697l-8.572,8.375l-8.574-8.375H38.959z M45.469,78.598l0.012,0.075h-0.086L45.469,78.598z M45.307,77.646L31.961,64.61   l9.551-9.33L45.307,77.646z M40.717,50.59L32,42.467l5.967-5.562l0.611,1.081L40.717,50.59z M22.807,10.378h15.098l9.922,5.467   v3.026h-25.02V10.378z M22.807,23.328l5.762,4.377l-5.762,4.377V23.328z M22.195,37.986l0.611-1.08l5.967,5.561l-8.717,8.122   L22.195,37.986z M19.262,55.281l9.551,9.329L15.465,77.647L19.262,55.281z M15.305,78.597l0.074,0.076h-0.088L15.305,78.597z"/><rect x="64.557" y="46.105" width="2.201" height="8.587"/><rect x="70.957" y="46.105" width="2.201" height="8.587"/><rect x="77.357" y="46.105" width="2.199" height="8.587"/><rect x="28.297" y="13.374" width="10.287" height="2.199"/></g><text x="0" y="106" fill="#000000" font-size="5px" font-weight="bold" font-family="'Helvetica Neue', Helvetica, Arial-Unicode, Arial, Sans-serif"></text><text x="0" y="111" fill="#000000" font-size="5px" font-weight="bold" font-family="'Helvetica Neue', Helvetica, Arial-Unicode, Arial, Sans-serif"></text></svg>