
<svg   xmlns="http://www.w3.org/2000/svg" xmlns:xlink="http://www.w3.org/1999/xlink" version="1.1" x="0px" y="0px" 
viewBox="0 0 62 80" style="enable-background:new 0 0 91 91;" xml:space="preserve"><g><path d="M15.2,33.3l2.9,0.8l1.8,2.5c0.3,0.4,0.8,0.7,1.4,0.7c0.3,0,0.7-0.1,1-0.3c0.7-0.6,0.9-1.6,0.4-2.4l-1.4-2l3.1-4.4l2.6,3.7   c0.3,0.5,0.9,0.7,1.4,0.7c0.3,0,0.7-0.1,1-0.3c0.8-0.5,1-1.6,0.4-2.3l-3.3-4.8l2.1-3.1c0.5-0.8,0.3-1.8-0.4-2.3   c-0.8-0.5-1.8-0.3-2.3,0.4l-2.1,3.1L18,22c-0.9-0.2-1.8,0.3-2,1.2c-0.2,0.9,0.3,1.8,1.2,2.1l4.4,1.1l-3.1,4.4l-2.3-0.7   c-0.9-0.3-1.8,0.3-2.1,1.2C13.8,32.1,14.3,33.1,15.2,33.3z"/><path d="M36.7,19.9l-1.3-3.1c-1,0.4-2,0.9-2.9,1.4l1.6,3C34.9,20.6,35.8,20.2,36.7,19.9z"/><path d="M65.1,20.3c-1.8-1.3-3.7-2.4-5.7-3.2L58,20.1c1.8,0.8,3.5,1.7,5.1,2.9L65.1,20.3z"/><path d="M48.8,73.2c-1.9,0.1-3.9,0-5.9-0.2l-0.5,3.3c1.5,0.2,3,0.3,4.6,0.3c0.7,0,1.3,0,2-0.1L48.8,73.2z"/><path d="M52.8,76.1c2.2-0.4,4.3-1,6.3-1.9l-1.3-3.1c-1.8,0.8-3.7,1.3-5.6,1.7L52.8,76.1z"/><path d="M55.8,15.8c-2.1-0.6-4.3-1-6.5-1.2L49,18c2,0.1,3.9,0.5,5.8,1L55.8,15.8z"/><path d="M60.8,69.6l1.7,2.9c1.9-1.1,3.7-2.4,5.3-3.9l-2.3-2.5C64.1,67.5,62.5,68.6,60.8,69.6z"/><path d="M74.7,45.6c0,0.5,0,0.9,0,1.4l3.4,0.2c0-0.5,0-1,0-1.5c0-1.7-0.1-3.4-0.4-5l-3.3,0.5C74.6,42.6,74.7,44.1,74.7,45.6z"/><path d="M67.9,63.8l2.5,2.2c1.4-1.7,2.7-3.5,3.8-5.4l-3-1.6C70.3,60.7,69.2,62.3,67.9,63.8z"/><path d="M77.6,50.9l-3.3-0.6c-0.3,1.9-0.9,3.8-1.6,5.6l3.1,1.3C76.7,55.2,77.3,53,77.6,50.9z"/><path d="M73.6,37.8l3.2-0.9c-0.6-2.1-1.5-4.2-2.5-6.1l-3,1.6C72.3,34.1,73.1,35.9,73.6,37.8z"/><path d="M69.6,29.5l2.8-2c-1.3-1.8-2.7-3.4-4.4-4.9l-2.3,2.5C67.2,26.5,68.5,27.9,69.6,29.5z"/><path d="M45.7,17.9l-0.2-3.4c-2.2,0.1-4.4,0.4-6.5,1l0.9,3.3C41.8,18.3,43.7,18,45.7,17.9z"/><path d="M38.8,75.5l0.9-3.3c-1.9-0.5-3.7-1.2-5.5-2.2l-1.6,3C34.6,74.1,36.6,74.9,38.8,75.5z"/><path d="M20.6,53.8c-0.6-1.9-1-3.8-1.1-5.8l-3.4,0.3c0.2,2.2,0.6,4.4,1.3,6.5L20.6,53.8z"/><path d="M24.7,62c-1.2-1.6-2.2-3.3-3-5.1l-3.1,1.4c0.9,2,2,3.9,3.3,5.7L24.7,62z"/><path d="M29.4,71.2l1.9-2.8c-1.6-1.1-3.1-2.4-4.5-3.8l-2.5,2.3C25.9,68.5,27.6,69.9,29.4,71.2z"/><path d="M16.3,41.2c-0.1,1.1-0.2,2.1-0.3,3.2l3.4,0.1c0-1,0.1-1.9,0.3-2.9L16.3,41.2z"/><path d="M26.8,46.8c0.2,3.7,1.5,7.1,3.4,10l1.4-0.6c2.3-1,4.9-1.8,7.7-2.3c-0.5-2.3-0.8-4.7-0.8-7.1H26.8z"/><path d="M32.6,58.4l-0.8,0.3c3.2,3.6,7.6,6,12.6,6.6L44.1,65c-1.8-2.5-3.2-5.5-4.2-8.8C37.3,56.7,34.8,57.4,32.6,58.4z"/><path d="M39.9,35c0.9-3.1,2.2-6,3.8-8.3l0.7-0.9c-5,0.6-9.4,3-12.6,6.6l0.8,0.4C34.8,33.8,37.2,34.5,39.9,35z"/><path d="M38.5,44.4c0.1-2.4,0.3-4.8,0.8-7c-2.8-0.5-5.4-1.3-7.8-2.4l-1.3-0.6c-2,2.9-3.2,6.3-3.4,10H38.5z"/><path d="M60.7,58.7c-2.4-1.1-5.1-2-8-2.5c-1,3.3-2.4,6.3-4.1,8.7l-0.3,0.4c5.1-0.4,9.7-2.8,13-6.4L60.7,58.7z"/><path d="M52.7,35c2.9-0.5,5.6-1.3,8.1-2.5l0.6-0.3c-3.3-3.6-7.9-6.1-13.1-6.5l0.7,0.9C50.6,29.1,51.8,31.9,52.7,35z"/><path d="M50.9,37.7c-1.5,0.2-3,0.3-4.5,0.3c-1.6,0-3.1-0.1-4.7-0.3c-0.5,2.1-0.7,4.4-0.8,6.6h10.8C51.6,42.1,51.4,39.9,50.9,37.7z"/><path d="M62.9,34.2l-1,0.6c-2.6,1.2-5.5,2.1-8.6,2.7c0.5,2.2,0.7,4.6,0.8,7h12.4C66.3,40.6,65,37.1,62.9,34.2z"/><path d="M61.8,56.5l0.1,0.1l0.8,0.5c2.1-3,3.5-6.5,3.7-10.4H54.1c-0.1,2.4-0.4,4.8-0.9,7.1C56.4,54.4,59.2,55.3,61.8,56.5z"/><path d="M42.3,35.4c1.3,0.1,2.7,0.2,4.1,0.2c1.3,0,2.6-0.1,3.9-0.2c-0.8-2.7-1.9-5.2-3.3-7.3l-0.6-0.9l-0.7,0.9   C44.2,30.2,43.1,32.6,42.3,35.4z"/><path d="M42.3,55.9c0.9,2.9,2.1,5.5,3.6,7.6l0.3,0.4l0.3-0.4c1.6-2.1,2.8-4.8,3.7-7.7c-1.3-0.1-2.6-0.2-3.9-0.2   C45,55.7,43.7,55.8,42.3,55.9z"/><path d="M51.7,46.8H40.9c0.1,2.3,0.3,4.6,0.8,6.8c1.5-0.2,3.1-0.3,4.7-0.3c1.5,0,3,0.1,4.5,0.3C51.4,51.4,51.6,49.1,51.7,46.8z"/></g><text x="0" y="106" fill="#000000" font-size="5px" font-weight="bold" font-family="'Helvetica Neue', Helvetica, Arial-Unicode, Arial, Sans-serif"></text><text x="0" y="111" fill="#000000" font-size="5px" font-weight="bold" font-family="'Helvetica Neue', Helvetica, Arial-Unicode, Arial, Sans-serif"></text>
</svg>