<svg xmlns="http://www.w3.org/2000/svg" xmlns:xlink="http://www.w3.org/1999/xlink" version="1.1" x="0px" y="0px" viewBox="0 0 504 481.49375" style="enable-background:new 0 0 504 385.195;" xml:space="preserve"><path d="M503.953,142.15c-0.659-13.74-8.17-26.04-20.092-32.902l-134.5-77.413c-14.897-8.575-32.727-9.234-48.148-1.924  l-14.117-8.125c-1.356-0.781-3.041-0.7-4.313,0.207l-60.677,43.144l-39.395-22.674c-4.675-2.691-10.104-3.348-15.288-1.849  c-5.183,1.499-9.423,4.952-11.941,9.723c-4.966,9.41-1.632,20.939,7.59,26.248l23.728,13.657l-89.238,63.452L72.369,79.598  c6.281-2.191,10.807-8.158,10.807-15.177c0-4.817-2.139-9.134-5.504-12.084c3.365-2.95,5.504-7.267,5.504-12.084  s-2.139-9.134-5.504-12.084c3.365-2.95,5.504-7.268,5.504-12.084C83.176,7.215,75.961,0,67.092,0S51.008,7.215,51.008,16.084  c0,4.817,2.139,9.134,5.504,12.084c-3.365,2.95-5.504,7.267-5.504,12.084s2.139,9.134,5.504,12.084  c-3.365,2.95-5.504,7.268-5.504,12.084c0,7.134,4.673,13.191,11.116,15.29L30.048,202.847l-0.129,18.952l-2.847,2.025  C9.111,236.594-0.98,257.36,0.075,279.372s13.089,41.716,32.188,52.709l65.006,37.415c18.245,10.501,38.602,15.7,58.917,15.699  c13.91-0.001,27.794-2.453,40.968-7.295l50.436,4.289c13.264,0,26.275-4.122,37.158-11.86l180.354-128.241  c10.614-7.547,17.619-19.288,19.218-32.213l4.225-34.147C498.844,167.694,504.583,155.284,503.953,142.15z M285.329,29.999  l25.545,14.703l-21.97,15.622l-25.545-14.703L285.329,29.999z M421.599,136.698l-25.545-14.703l21.97-15.622l25.545,14.703  L421.599,136.698z M446.971,128.473v34.579l-21.145,15.035v-34.579L446.971,128.473z M322.532,88.909l25.545,14.703l-26.448,18.806  l-25.545-14.703L322.532,88.909z M288.454,103.324L262.91,88.622l26.449-18.806l25.545,14.703L288.454,103.324z M355.706,108.003  l25.545,14.703l-26.448,18.806l-25.545-14.703L355.706,108.003z M388.88,127.097l25.545,14.703l-27.278,19.396  c-1.353-1.477-2.945-2.762-4.753-3.803l-19.962-11.489L388.88,127.097z M392.166,172.546c-0.149-1.535-0.472-3.018-0.945-4.431  l26.606-18.918v34.579l-40.733,28.963v-19.148c3.042-0.717,5.939-2.145,8.405-4.292C390.36,185.068,392.79,178.961,392.166,172.546z   M388.425,117.604l-25.545-14.703l21.97-15.622l25.545,14.703L388.425,117.604z M355.251,98.511l-25.545-14.703l21.97-15.622  l25.545,14.703L355.251,98.511z M322.077,79.417l-25.545-14.703l21.97-15.622l25.545,14.703L322.077,79.417z M256.184,50.722  l25.545,14.703L255.28,84.23l-25.545-14.703L256.184,50.722z M167.064,69.65c-5.474-3.151-7.453-9.995-4.505-15.581  c1.495-2.832,4.012-4.882,7.088-5.771c1.08-0.313,2.178-0.467,3.269-0.467c2.015,0,4.004,0.528,5.806,1.564l199.681,114.93  c3.316,1.909,5.43,5.187,5.801,8.995s-1.072,7.433-3.958,9.945c-3.758,3.272-9.183,3.798-13.501,1.314L167.064,69.65z   M74.494,222.595l32.926-23.412l25.545,14.703l-32.927,23.412L74.494,222.595z M96.266,244.356v35.164l-25.174-14.489v-35.165  L96.266,244.356z M246.339,175.953l-32.926,23.412l-25.545-14.703l32.926-23.412L246.339,175.953z M227.969,156.149l14.529-10.331  l25.545,14.703l-14.529,10.331L227.969,156.149z M206.24,204.465l-32.927,23.412l-25.545-14.703l32.927-23.412L206.24,204.465z   M213.869,208.856l25.545,14.703l-32.927,23.413l-25.545-14.703L213.869,208.856z M221.043,203.755l32.926-23.412l25.545,14.703  l-32.925,23.412L221.043,203.755z M261.143,175.242l14.529-10.331l25.545,14.703l-14.529,10.331L261.143,175.242z M213.097,119.665  v-14.289l109.801,63.198v14.289L213.097,119.665z M234.869,141.426l-14.529,10.331l-25.545-14.703l14.529-10.331L234.869,141.426z   M213.166,156.859l-32.926,23.412l-25.545-14.703l32.926-23.412L213.166,156.859z M173.066,185.372l-32.926,23.412l-25.545-14.703  l32.926-23.412L173.066,185.372z M104.266,248.961l25.174,14.49v35.164l-25.174-14.489V248.961z M107.668,241.688l32.927-23.412  l25.545,14.703l-32.927,23.412L107.668,241.688z M137.441,268.055l25.174,14.489v35.164l-25.174-14.489V268.055z M140.842,260.782  l32.927-23.412l25.545,14.703l-32.927,23.412L140.842,260.782z M170.614,287.149l25.174,14.489v35.164l-25.174-14.489V287.149z   M174.016,279.876l32.927-23.412l25.545,14.703l-32.927,23.413L174.016,279.876z M203.788,301.388l32.1-22.825v34.579l-32.1,22.825  V301.388z M214.116,251.362l32.927-23.413l25.545,14.703l-32.927,23.413L214.116,251.362z M243.888,272.875l32.101-22.825v34.579  l-32.101,22.825V272.875z M254.217,222.849l32.926-23.412l25.544,14.703l-32.925,23.411L254.217,222.849z M283.989,244.362  l32.1-22.825v34.579l-32.1,22.825V244.362z M294.317,194.336l14.53-10.331l16.057,9.242c1.265,0.544,2.581,0.67,3.998-0.004  c1.236-0.715,1.998-2.035,1.998-3.463v-16.602l21.772,12.531l-32.809,23.329L294.317,194.336z M324.089,215.848l36.211-25.748  l2.454,1.412c2.004,1.154,4.15,1.914,6.34,2.307v24.607l-45.004,32V215.848z M194.43,94.632l10.667,6.139v19.142l-17.931,12.75  l-25.545-14.703L194.43,94.632z M154.447,123.062l25.545,14.703l-32.926,23.412l-25.545-14.703L154.447,123.062z M114.347,151.575  l25.545,14.703l-30.641,21.787l-9-26.467L114.347,151.575z M102.446,192.903l-31.354,22.294V100.694L102.446,192.903z M67.092,8  c4.458,0,8.084,3.626,8.084,8.084c0,4.458-3.626,8.084-8.084,8.084s-8.084-3.626-8.084-8.084C59.008,11.626,62.635,8,67.092,8z   M67.092,32.168c4.458,0,8.084,3.626,8.084,8.084s-3.626,8.084-8.084,8.084s-8.084-3.626-8.084-8.084S62.635,32.168,67.092,32.168z   M59.008,64.421c0-4.458,3.626-8.084,8.084-8.084s8.084,3.626,8.084,8.084c0,4.458-3.626,8.084-8.084,8.084  S59.008,68.878,59.008,64.421z M63.092,107.728v108.304l-24.534-14.121L63.092,107.728z M37.919,210.773l25.174,14.489v35.165  l-25.174-14.489V210.773z M17.453,307.548l25.075-17.83l25.545,14.703L37.73,325.997C28.352,321.739,21.724,315.495,17.453,307.548z   M45.36,330.388l30.343-21.576l25.545,14.703L70.904,345.09L45.36,330.388z M101.26,362.562l-22.727-13.081l30.343-21.575  l25.545,14.703l-30.289,21.537C103.17,363.63,102.21,363.109,101.26,362.562z M476.382,208.891  c-1.325,10.703-7.125,20.426-15.915,26.676L280.113,363.808c-10.898,7.749-24.236,11.355-37.553,10.154l-30.496-2.75  c4.349-2.326,8.584-4.928,12.666-7.83l254.968-181.295L476.382,208.891z M482.466,170.304L220.094,356.863  c-31.589,22.462-72.683,26.459-107.751,11.26l31.798-22.61c1.111-0.789,1.743-2.09,1.678-3.451c-0.065-1.361-0.819-2.596-2-3.275  l-99.522-57.281c-1.355-0.78-3.041-0.698-4.313,0.207l-26.499,18.842c-3.162-6.645-5.052-13.942-5.418-21.567  c-0.889-18.531,7.248-36.05,21.853-47.313v16.577c0,1.431,0.765,2.753,2.004,3.467l165.87,95.468  c0.62,0.356,1.308,0.533,1.995,0.533c0.815,0,1.627-0.249,2.318-0.74l251.183-178.603c1.055-0.75,1.682-1.965,1.682-3.26v-44.396  c0-1.431-0.765-2.753-2.005-3.467L310.043,34.993c11.685-3.76,24.434-2.494,35.328,3.776l134.5,77.413  c9.548,5.496,15.564,15.347,16.092,26.352S491.445,163.92,482.466,170.304z"/><text x="0" y="400.195" fill="#000000" font-size="5px" font-weight="bold" font-family="'Helvetica Neue', Helvetica, Arial-Unicode, Arial, Sans-serif">Created by Amethyst Studio</text><text x="0" y="405.195" fill="#000000" font-size="5px" font-weight="bold" font-family="'Helvetica Neue', Helvetica, Arial-Unicode, Arial, Sans-serif"></text></svg>