<svg xmlns="http://www.w3.org/2000/svg" xmlns:xlink="http://www.w3.org/1999/xlink" version="1.1" x="0px" y="0px" viewBox="0 0 62 80" enable-background="new 0 0 91 91" xml:space="preserve"><g><g><path d="M28.238,10.261c0-1.142-0.926-2.068-2.068-2.068H13.43c-1.142,0-2.068,0.927-2.068,2.068c0,1.143,0.926,2.068,2.068,2.068    h12.739C27.312,12.33,28.238,11.404,28.238,10.261z"/><path d="M6.346,29.291h8.036C14.374,29.422,18.3,45.098,18.3,45.098s-3.933,15.267-3.933,15.443c0,4.396,4.378,4.506,6.248,4.553    c0.017,0,0.035,0,0.052,0c2.67,0,3.564-1.369,4.427-2.695l5.368-8.518l50.21-0.1c4.645-0.004,9.625-3.477,9.629-8.637    c0.002-2.403-1.096-4.654-3.09-6.332c-1.807-1.525-4.189-2.398-6.541-2.398L30.467,36.35l-4.992-8.318    c-1.186-2.004-2.838-2.955-4.868-2.876c-0.045,0.004-14.261-0.002-14.261-0.002c-1.142,0-2.068,0.927-2.068,2.068    C4.278,28.365,5.204,29.291,6.346,29.291z"/><path d="M2.768,39.945H9.72c1.142,0,2.068-0.925,2.068-2.068c0-1.141-0.926-2.068-2.068-2.068H2.768    c-1.142,0-2.068,0.927-2.068,2.068C0.7,39.021,1.626,39.945,2.768,39.945z"/><path d="M17.018,80.842c0,1.143,0.926,2.068,2.068,2.068h30.607c0.004,0,0.004,0,0.006,0c5.268-0.008,7.031-3.02,8.318-5.219    l0.162-0.275c0.035-0.061,0.068-0.123,0.098-0.186l8.125-17.672c0.295-0.641,0.242-1.385-0.137-1.979    c-0.379-0.592-1.035-0.953-1.74-0.955L44.556,56.6c-0.001,0-0.002,0-0.003,0c-1.063,0-1.952,0.807-2.059,1.861L40.94,73.938    c-0.007,0.07-0.01,0.139-0.01,0.207c-0.001,1.816,0.292,3.361,0.872,4.629H19.086C17.943,78.773,17.018,79.699,17.018,80.842z"/><path d="M28.985,69.957H9.72c-1.143,0-2.068,0.928-2.068,2.068c0,1.143,0.926,2.068,2.068,2.068h19.266    c1.142,0,2.068-0.926,2.068-2.068C31.054,70.885,30.127,69.957,28.985,69.957z"/><path d="M44.055,24.182c-0.584,0-1.142,0.249-1.534,0.681c-0.392,0.435-0.583,1.014-0.524,1.596l0.528,5.24    c0.107,1.059,0.996,1.862,2.058,1.862h19.94c0.703,0,1.359-0.357,1.74-0.949c0.379-0.592,0.434-1.337,0.141-1.978l-8.061-17.682    c-0.029-0.065-0.061-0.127-0.098-0.19l-0.156-0.269c-1.285-2.2-3.043-5.211-8.322-5.211c-5.821,0-8.774,2.951-8.78,8.772    c0,0.041,0.001,0.083,0.003,0.123l0.034,0.584H21.439c-1.142,0-2.068,0.927-2.068,2.068c0,1.143,0.926,2.068,2.068,2.068h21.778    h4.351h3.395c-0.041,0.693-0.492,2.016-1.117,3.284H44.055z"/></g></g><text x="0" y="106" fill="#000000" font-size="5px" font-weight="bold" font-family="'Helvetica Neue', Helvetica, Arial-Unicode, Arial, Sans-serif"></text><text x="0" y="111" fill="#000000" font-size="5px" font-weight="bold" font-family="'Helvetica Neue', Helvetica, Arial-Unicode, Arial, Sans-serif"></text></svg>