<svg xmlns="http://www.w3.org/2000/svg" xmlns:xlink="http://www.w3.org/1999/xlink" version="1.1" x="0px" y="0px" viewBox="0 0 62 90" enable-background="new 0 0 91 91" xml:space="preserve"><g><path d="M17.833,83.605c3.069,0,5.848-1.631,7.412-4.176c1.563,2.546,4.342,4.176,7.411,4.176c3.068,0,5.847-1.631,7.411-4.176   c1.563,2.546,4.342,4.176,7.411,4.176c3.07,0,5.848-1.631,7.412-4.176c1.564,2.546,4.342,4.176,7.412,4.176   c3.068,0,5.848-1.631,7.412-4.176c1.563,2.546,4.342,4.176,7.41,4.176c3.707,0,7.016-2.354,8.236-5.859   c0.199-0.573-0.104-1.2-0.676-1.4c-0.576-0.195-1.201,0.104-1.402,0.678c-0.912,2.621-3.387,4.383-6.158,4.383   c-2.77,0-5.246-1.762-6.158-4.383c-0.182-0.525-0.723-0.8-1.252-0.697c-0.529-0.105-1.07,0.172-1.254,0.696   c-0.914,2.622-3.389,4.384-6.158,4.384c-2.771,0-5.246-1.762-6.158-4.383c-0.184-0.525-0.725-0.802-1.254-0.697   c-0.529-0.104-1.07,0.172-1.252,0.696c-0.914,2.622-3.389,4.384-6.16,4.384c-2.77,0-5.245-1.762-6.158-4.383   c-0.183-0.525-0.724-0.802-1.253-0.697c-0.529-0.104-1.07,0.174-1.252,0.696c-0.914,2.622-3.39,4.384-6.159,4.384   c-2.771,0-5.246-1.762-6.158-4.383c-0.184-0.525-0.724-0.802-1.253-0.697c-0.53-0.104-1.07,0.172-1.254,0.696   c-0.913,2.622-3.388,4.384-6.158,4.384c-2.771,0-5.246-1.762-6.158-4.383c-0.2-0.574-0.827-0.875-1.4-0.678   c-0.574,0.2-0.877,0.827-0.678,1.4C10.817,81.251,14.126,83.605,17.833,83.605z"/><path d="M36.177,28.14h-5.543v11.127l-8.068,3.138l8.404,22.965c-0.065,0.088-0.131,0.176-0.169,0.284   c-0.913,2.621-3.389,4.383-6.159,4.383s-5.245-1.762-6.158-4.382c-0.199-0.573-0.826-0.874-1.4-0.678   c-0.573,0.2-0.877,0.827-0.677,1.4c1.22,3.505,4.53,5.858,8.235,5.858c3.029,0,5.773-1.589,7.349-4.077l0.412,1.126l0.424-0.155   c1.626,1.92,4.025,3.106,6.639,3.106c2.716,0,5.211-1.273,6.835-3.329h1.152c1.623,2.057,4.119,3.329,6.836,3.329   c2.613,0,5.012-1.187,6.639-3.106l0.422,0.155l0.412-1.127c1.576,2.489,4.32,4.078,7.35,4.078c3.705,0,7.016-2.354,8.236-5.857   c0.199-0.574-0.104-1.201-0.676-1.401c-0.576-0.197-1.201,0.104-1.402,0.677c-0.912,2.621-3.389,4.383-6.158,4.383   c-2.771,0-5.246-1.762-6.158-4.382c-0.039-0.109-0.104-0.198-0.17-0.286l8.404-22.964l-8.068-3.138V28.14h-5.543v-5.867h-6.799   v-10.2h-7.8v10.2h-6.8V28.14z M45.777,65.396c-0.057,0.081-0.118,0.158-0.152,0.257c-0.914,2.621-3.389,4.383-6.159,4.383   c-2.362,0-4.501-1.288-5.648-3.29l-8.443-23.072l20.403-7.935V65.396z M68.381,43.674l-8.443,23.072   c-1.148,2.002-3.287,3.29-5.648,3.29c-2.771,0-5.246-1.762-6.158-4.382c-0.035-0.1-0.096-0.178-0.154-0.26V35.739L68.381,43.674z    M60.92,30.339v8.072L46.877,32.95l-14.042,5.461v-8.072h3.343h21.399H60.92z M45.177,14.271h3.399v8.001h-3.399V14.271z    M38.376,24.472h4.601h7.8h4.6v3.668h-17V24.472z"/><path d="M10.716,15.256c0.574,0.197,1.201-0.104,1.4-0.677c0.221-0.631,0.725-1.022,2.561-1.022c1.15,0,2.18,0.733,2.561,1.823   c0.158,0.454,0.583,0.738,1.038,0.738c0.035,0,0.071-0.015,0.107-0.019c0.035,0.004,0.071,0.019,0.106,0.019   c0.455,0,0.881-0.285,1.039-0.738c0.38-1.091,1.408-1.823,2.56-1.823s2.18,0.732,2.56,1.822c0.2,0.574,0.827,0.876,1.4,0.678   c0.574-0.2,0.877-0.827,0.678-1.4c-0.688-1.974-2.551-3.299-4.638-3.299c-1.454,0-2.791,0.654-3.706,1.713   c-0.915-1.059-2.252-1.713-3.705-1.713c-1.128,0-3.768,0-4.638,2.497C9.839,14.429,10.143,15.056,10.716,15.256z"/><path d="M25.607,10.146c0.573,0.197,1.2-0.104,1.4-0.678c0.379-1.09,1.408-1.823,2.56-1.823s2.18,0.733,2.56,1.823   c0.158,0.454,0.584,0.739,1.039,0.739c0.035,0,0.071-0.015,0.106-0.018c0.036,0.003,0.072,0.018,0.107,0.018   c0.455,0,0.881-0.285,1.038-0.739c0.38-1.09,1.408-1.823,2.561-1.823c1.15,0,2.18,0.733,2.561,1.824   c0.199,0.574,0.826,0.874,1.4,0.677c0.573-0.2,0.877-0.827,0.677-1.401c-0.688-1.974-2.552-3.299-4.638-3.299   c-1.455,0-2.791,0.654-3.706,1.713c-0.915-1.059-2.251-1.713-3.705-1.713c-2.087,0-3.95,1.326-4.638,3.3   C24.73,9.318,25.033,9.945,25.607,10.146z"/></g><text x="0" y="106" fill="#000000" font-size="5px" font-weight="bold" font-family="'Helvetica Neue', Helvetica, Arial-Unicode, Arial, Sans-serif"></text><text x="0" y="111" fill="#000000" font-size="5px" font-weight="bold" font-family="'Helvetica Neue', Helvetica, Arial-Unicode, Arial, Sans-serif"></text></svg>